<svg width="24" height="22" viewBox="0 0 24 22" fill="none" xmlns="http://www.w3.org/2000/svg">
<path d="M6.25988 17.8026H6.48694L8.21573 16.1402V14.9883L8.05605 14.8342H6.85799L5.1292 16.4974V16.7153L6.25988 17.8026Z" fill="white"/>
<path d="M5.1292 5.28382V5.50165L6.85799 7.16399H8.05605L8.21573 7.01077V5.85885L6.48694 4.1956H6.25988L5.1292 5.28382Z" fill="white"/>
<path d="M13.4409 14.297H15.0857L15.2232 14.165V10.209C15.2232 8.82448 14.0574 7.70302 12.6175 7.70302H8.91444L8.77599 7.83594V14.1632L8.91444 14.2951H10.5592L10.6968 14.1632V9.36998L10.7752 9.29244C11.2949 9.27306 11.7822 9.26291 12.2068 9.27306C13.0338 9.2906 13.3024 9.80194 13.3024 10.461V14.165L13.4409 14.297Z" fill="white"/>
<path d="M0.139427 11.9258H6.72046V11.9249L6.85891 11.7929V10.2071L6.72046 10.0752H0.138505L0.000976562 10.2071V11.7929L0.139427 11.9258Z" fill="white"/>
<path d="M17.2815 11.9258H23.8634V11.9249L24.001 11.7929V10.2071L23.8634 10.0752H17.2815L17.143 10.2071V11.7929L17.2815 11.9258Z" fill="white"/>
<path d="M11.0521 0.978914V5.72594L11.1897 5.85885H12.8391L12.9757 5.72594V0.978914L12.8391 0.846924H11.1897L11.0521 0.978914Z" fill="white"/>
<path d="M11.0521 16.2741V21.0211L11.1897 21.1531H12.8391L12.9757 21.0211V16.2741L12.8391 16.1421H11.1897L11.0521 16.2741Z" fill="white"/>
</svg>
